<svg id="button_flash" data-name="button/flash" xmlns="http://www.w3.org/2000/svg" xmlns:xlink="http://www.w3.org/1999/xlink" width="41" height="41" viewBox="0 0 41 41">
  <defs>
    <clipPath id="clip-path">
      <rect id="Rectangle_1904" data-name="Rectangle 1904" width="21" height="21" fill="#fff" stroke="#707070" stroke-width="1" opacity="0.64"/>
    </clipPath>
  </defs>
  <rect id="Rectangle_2015" data-name="Rectangle 2015" width="41" height="41" rx="4" fill="#0a0a0a" opacity="0.4"/>
  <g id="icon_flash" data-name="icon/flash" transform="translate(11 10)">
    <g id="icon_flash-2" data-name="icon/flash" clip-path="url(#clip-path)">
      <g id="flash_1_" data-name="flash(1)" transform="translate(3.85 0)">
        <path id="Path_1197" data-name="Path 1197" d="M6.918,20.438a.6.6,0,0,0,.735-.163L17.263,8.223a.6.6,0,0,0-.469-.976H12.961L16.13.869A.6.6,0,0,0,15.593,0H8.386A.6.6,0,0,0,7.8.455L5.4,10.1a.6.6,0,0,0,.582.746H8.817L6.6,19.754A.6.6,0,0,0,6.918,20.438Z" transform="translate(-5.383 0)" fill="#fff"/>
      </g>
    </g>
  </g>
</svg>
