<svg xmlns="http://www.w3.org/2000/svg" width="96" height="123.746" viewBox="0 0 96 123.746">
  <g id="Logo_Find_Disease" data-name="Logo Find Disease" transform="translate(0 1.5)">
    <path id="Path_1413" data-name="Path 1413" d="M6229.218,4739.293v49.434m.095-30.1c43.642-27.262,8.162-40.349-.013-67.673C6221.454,4718.727,6185.068,4731.093,6229.313,4758.623Zm-.095-37.25a8.85,8.85,0,1,1-8.851,8.851A8.851,8.851,0,0,1,6229.218,4721.373Zm8.986,55.855c26.8,6.193,18.339-12.166,25.578-25.587C6250.317,4759.177,6231.886,4750.1,6238.2,4777.229Zm6.478-7-15.173,15.172m-10.239-19.182,9.66,9.659m-12.945-16.984a3.945,3.945,0,1,1-3.947,3.945A3.945,3.945,0,0,1,6215.984,4758.9Z" transform="translate(-6187.782 -4690.95)" fill="none" stroke="#f5f5f5" stroke-linecap="round" stroke-linejoin="round" stroke-width="3"/>
    <path id="Path_1414" data-name="Path 1414" d="M4866.225,9178.955h.632a.678.678,0,0,0,.744-.746V9172h3a.668.668,0,0,0,.745-.746v-.406a.668.668,0,0,0-.745-.745h-3v-5.08h3.7a.657.657,0,0,0,.744-.743v-.385a.667.667,0,0,0-.744-.745h-5.08a.668.668,0,0,0-.746.745v14.314A.669.669,0,0,0,4866.225,9178.955Zm9.6-.746v-14.314a.677.677,0,0,0-.745-.745h-.632a.667.667,0,0,0-.745.745v14.314a.668.668,0,0,0,.745.746h.632A.678.678,0,0,0,4875.82,9178.209Zm4.583,0v-10.5l3.861,10.636a.809.809,0,0,0,.836.609h.654a.669.669,0,0,0,.746-.746v-14.314a.668.668,0,0,0-.746-.745h-.473a.678.678,0,0,0-.746.745v10.138l-3.748-10.272a.832.832,0,0,0-.859-.61h-.745a.667.667,0,0,0-.744.745v14.314a.668.668,0,0,0,.744.746h.475A.678.678,0,0,0,4880.4,9178.209Zm12.531-15.06h-3.16a.668.668,0,0,0-.746.745v14.314a.669.669,0,0,0,.746.746h3.16c2.393,0,3.838-1.018,3.838-3.342v-9.122C4896.772,9164.166,4895.327,9163.149,4892.934,9163.149Zm1.716,3.747v8.31c0,1.4-.632,1.874-1.807,1.874h-1.693v-12.058h1.693C4894.018,9165.022,4894.65,9165.5,4894.65,9166.9Zm12.079-3.747h-3.16a.667.667,0,0,0-.745.745v14.314a.668.668,0,0,0,.745.746h3.16c2.394,0,3.838-1.018,3.838-3.342v-9.122C4910.567,9164.166,4909.123,9163.149,4906.729,9163.149Zm1.716,3.747v8.31c0,1.4-.633,1.874-1.806,1.874h-1.693v-12.058h1.693C4907.813,9165.022,4908.445,9165.5,4908.445,9166.9Zm6.773,11.313v-14.314a.678.678,0,0,0-.745-.745h-.632a.667.667,0,0,0-.745.745v14.314a.668.668,0,0,0,.745.746h.632A.678.678,0,0,0,4915.219,9178.209Zm9.844-10.229v-1.76c0-2.28-1.581-3.251-3.748-3.251h-.045c-2.167,0-3.748.971-3.748,3.251v1.987c0,1.514.768,2.188,2.213,3.025l2.032,1.128c.926.52,1.264.926,1.264,1.874v1.242c0,1.242-.609,1.806-1.716,1.806s-1.715-.563-1.715-1.806v-1.58a.667.667,0,0,0-.746-.744h-.587a.667.667,0,0,0-.745.744v1.941c0,2.394,1.377,3.3,3.77,3.3h.045c2.394,0,3.771-.926,3.771-3.3v-2.189c0-1.514-.858-2.281-2.213-3.049l-2.054-1.13c-.9-.518-1.241-.856-1.241-1.8v-1.085c0-1.263.61-1.76,1.692-1.76s1.694.5,1.694,1.76v1.4a.668.668,0,0,0,.745.747h.587A.668.668,0,0,0,4925.063,9167.979Zm8.941,10.229v-.385a.658.658,0,0,0-.745-.744H4929.4v-5.193h3.093a.668.668,0,0,0,.745-.746v-.405a.668.668,0,0,0-.745-.745H4929.4v-4.968h3.792a.658.658,0,0,0,.746-.743v-.385a.668.668,0,0,0-.746-.745h-5.17a.667.667,0,0,0-.745.745v14.314a.668.668,0,0,0,.745.746h5.238A.669.669,0,0,0,4934,9178.209Zm9.7-.068-2.886-14.314a.768.768,0,0,0-.813-.677h-1.26a.768.768,0,0,0-.813.677l-2.841,14.314c-.09.521.158.814.655.814h.564a.734.734,0,0,0,.787-.678l.542-3.05h3.406l.542,3.05a.755.755,0,0,0,.812.678h.652A.6.6,0,0,0,4943.708,9178.141Zm-5.727-4.7,1.377-7.632,1.373,7.632Zm14.559-5.466v-1.76c0-2.28-1.58-3.251-3.748-3.251h-.045c-2.167,0-3.748.971-3.748,3.251v1.987c0,1.514.768,2.188,2.212,3.025l2.032,1.128c.926.52,1.265.926,1.265,1.874v1.242c0,1.242-.61,1.806-1.716,1.806s-1.716-.563-1.716-1.806v-1.58a.667.667,0,0,0-.745-.744h-.587a.667.667,0,0,0-.746.744v1.941c0,2.394,1.377,3.3,3.771,3.3h.045c2.393,0,3.77-.926,3.77-3.3v-2.189c0-1.514-.858-2.281-2.212-3.049l-2.055-1.13c-.9-.518-1.242-.856-1.242-1.8v-1.085c0-1.263.609-1.76,1.693-1.76s1.693.5,1.693,1.76v1.4a.668.668,0,0,0,.745.747h.587A.668.668,0,0,0,4952.539,9167.979Zm8.94,10.229v-.385a.658.658,0,0,0-.744-.744h-3.861v-5.193h3.093a.667.667,0,0,0,.745-.746v-.405a.668.668,0,0,0-.745-.745h-3.093v-4.968h3.794a.657.657,0,0,0,.744-.743v-.385a.668.668,0,0,0-.744-.745H4955.5a.667.667,0,0,0-.744.745v14.314a.668.668,0,0,0,.744.746h5.239A.668.668,0,0,0,4961.479,9178.209Z" transform="translate(-4865.479 -9056.889)" fill="#f2f6f9"/>
  </g>
</svg>
